<?xml version="1.0" encoding="utf-8"?>
<!-- Generator: Adobe Illustrator 25.1.0, SVG Export Plug-In . SVG Version: 6.00 Build 0)  -->
<svg version="1.1" id="Capa_1" xmlns="http://www.w3.org/2000/svg" xmlns:xlink="http://www.w3.org/1999/xlink" x="0px" y="0px"
	 viewBox="0 0 340 340" enable-background="new 0 0 340 340" xml:space="preserve">
<path fill="#0077FF" d="M225.21,46.77H40.5c-4.42,0-8,3.58-8,8V316.4h200.71V54.77C233.21,50.36,229.63,46.77,225.21,46.77z"/>
<rect x="32.5" y="301.31" fill="#0058AF" width="200.71" height="15.09"/>
<rect x="63.35" y="77.12" fill="#00C3FF" width="31.02" height="31.02"/>
<rect x="117.35" y="77.12" fill="#00C3FF" width="31.02" height="31.02"/>
<rect x="171.34" y="77.12" fill="#00C3FF" width="31.02" height="31.02"/>
<path fill="#00C3FF" d="M297.1,316.4h-63.89V108.14h55.89c4.42,0,8,3.58,8,8V316.4z"/>
<rect x="63.35" y="131.45" fill="#00C3FF" width="31.02" height="31.02"/>
<rect x="117.35" y="131.45" fill="#00C3FF" width="31.02" height="31.02"/>
<rect x="171.34" y="131.45" fill="#00C3FF" width="31.02" height="31.02"/>
<rect x="247.3" y="146.96" fill="#0077FF" width="31.02" height="31.02"/>
<rect x="247.3" y="201.29" fill="#0077FF" width="31.02" height="31.02"/>
<rect x="247.3" y="255.62" fill="#0077FF" width="31.02" height="31.02"/>
<rect x="63.35" y="185.78" fill="#00C3FF" width="31.02" height="31.02"/>
<rect x="117.35" y="185.78" fill="#00C3FF" width="31.02" height="31.02"/>
<rect x="171.34" y="185.78" fill="#00C3FF" width="31.02" height="31.02"/>
<rect x="63.35" y="240.11" fill="#00C3FF" width="31.02" height="45.11"/>
<rect x="117.35" y="240.11" fill="#00C3FF" width="31.02" height="45.11"/>
<rect x="171.34" y="240.11" fill="#00C3FF" width="31.02" height="45.11"/>
<rect x="55.64" y="23.47" fill="#0058AF" width="154.6" height="23.31"/>
<rect x="233.21" y="301.31" fill="#008AAA" width="63.89" height="15.09"/>
</svg>
